<svg xmlns="http://www.w3.org/2000/svg" width="1200" height="630" viewBox="0 0 1200 630">
  <defs>
    <linearGradient id="bg" x1="0" y1="0" x2="1" y2="1">
      <stop offset="0" stop-color="#0c1320"/>
      <stop offset="0.55" stop-color="#141d33"/>
      <stop offset="1" stop-color="#1c1736"/>
    </linearGradient>
    <radialGradient id="glow" cx="50%" cy="50%" r="50%">
      <stop offset="0" stop-color="#f97316" stop-opacity="0.42"/>
      <stop offset="1" stop-color="#f97316" stop-opacity="0"/>
    </radialGradient>
    <pattern id="grid" width="44" height="44" patternUnits="userSpaceOnUse">
      <path d="M44 0H0V44" fill="none" stroke="#9fb4ff" stroke-opacity="0.05" stroke-width="1"/>
    </pattern>
  </defs>
  <rect width="1200" height="630" fill="url(#bg)"/>
  <rect width="1200" height="630" fill="url(#grid)"/>
  <circle cx="250" cy="150" r="540" fill="url(#glow)"/>
  <rect x="0" y="0" width="12" height="630" fill="#f97316"/>
  <g stroke="#f97316" stroke-opacity="0.30" stroke-width="2.5" fill="none">
    <line x1="690" y1="200" x2="850" y2="165"/>
    <line x1="850" y1="165" x2="1010" y2="235"/>
    <line x1="690" y1="200" x2="770" y2="320"/>
    <line x1="770" y1="320" x2="930" y2="350"/>
    <line x1="930" y1="350" x2="1060" y2="430"/>
    <line x1="1010" y1="235" x2="930" y2="350"/>
    <line x1="770" y1="320" x2="660" y2="415"/>
    <line x1="930" y1="350" x2="850" y2="165"/>
    <line x1="930" y1="350" x2="880" y2="470"/>
  </g>
  <g fill="#f97316">
    <circle cx="690" cy="200" r="13" fill-opacity="0.95"/>
    <circle cx="850" cy="165" r="11" fill-opacity="0.75"/>
    <circle cx="1010" cy="235" r="10" fill-opacity="0.6"/>
    <circle cx="770" cy="320" r="14" fill-opacity="0.9"/>
    <circle cx="930" cy="350" r="16" fill-opacity="1"/>
    <circle cx="1060" cy="430" r="9" fill-opacity="0.5"/>
    <circle cx="660" cy="415" r="10" fill-opacity="0.6"/>
    <circle cx="880" cy="470" r="11" fill-opacity="0.7"/>
  </g>
</svg>
